<svg width="16" height="17" viewBox="0 0 16 17" fill="none" xmlns="http://www.w3.org/2000/svg">
<path d="M1.56836 11.2483C1.69021 11.0396 1.9398 10.9519 2.16016 11.0266L2.25195 11.0686L8 14.4212L13.748 11.0686C13.9865 10.9295 14.2925 11.0099 14.4316 11.2483C14.5706 11.4868 14.4903 11.7928 14.252 11.9319L8.25195 15.4319C8.09633 15.5227 7.90367 15.5227 7.74805 15.4319L1.74805 11.9319L1.66602 11.8724C1.49292 11.7173 1.4468 11.4569 1.56836 11.2483ZM1.56836 8.24832C1.69021 8.03956 1.9398 7.95187 2.16016 8.02664L2.25195 8.06863L8 11.4212L13.748 8.06863C13.9865 7.92951 14.2925 8.00988 14.4316 8.24832C14.5706 8.48678 14.4903 8.79278 14.252 8.93191L8.25195 12.4319C8.09633 12.5227 7.90367 12.5227 7.74805 12.4319L1.74805 8.93191L1.66602 8.87234C1.49292 8.71729 1.4468 8.45691 1.56836 8.24832ZM7.74805 1.5686C7.90373 1.47778 8.09627 1.47778 8.25195 1.5686L14.252 5.06861C14.4054 5.15825 14.5 5.32251 14.5 5.50026C14.4999 5.67795 14.4054 5.84232 14.252 5.9319L8.25195 9.43192C8.09633 9.52265 7.90367 9.52265 7.74805 9.43192L1.74805 5.9319C1.59458 5.84232 1.50009 5.67795 1.5 5.50026C1.5 5.32251 1.59457 5.15825 1.74805 5.06861L7.74805 1.5686ZM2.99121 5.50026L8 8.42117L13.0078 5.50026L8 2.57837L2.99121 5.50026Z" fill="#666"/>
</svg>
