<svg width="64" height="61" viewBox="0 0 64 61" fill="none" xmlns="http://www.w3.org/2000/svg">
<path d="M30.875 44.2188C31.215 44.4132 31.5999 44.5154 31.9916 44.5154C32.3832 44.5154 32.7681 44.4132 33.1081 44.2188C33.7972 43.8222 49.9831 34.375 49.9831 17.5141C49.8417 12.8378 47.8852 8.4002 44.528 5.14173C41.1708 1.88326 36.6769 0.0599352 31.9984 0.0581068C27.3199 0.0562785 22.8245 1.87609 19.4648 5.13194C16.1051 8.38778 14.145 12.8238 14 17.5C14 34.375 30.1944 43.8082 30.875 44.2188ZM32 10.75C33.335 10.75 34.6401 11.1459 35.7501 11.8876C36.8601 12.6293 37.7253 13.6835 38.2362 14.9169C38.7471 16.1503 38.8808 17.5075 38.6203 18.8169C38.3599 20.1263 37.717 21.329 36.773 22.273C35.829 23.217 34.6262 23.8599 33.3169 24.1204C32.0075 24.3808 30.6503 24.2471 29.4169 23.7362C28.1835 23.2253 27.1293 22.3602 26.3876 21.2501C25.6459 20.1401 25.25 18.8351 25.25 17.5C25.25 15.7098 25.9612 13.9929 27.227 12.7271C28.4929 11.4612 30.2098 10.75 32 10.75ZM63.5 46.75C63.5 55.5194 47.2691 60.25 32 60.25C16.7309 60.25 0.5 55.5194 0.5 46.75C0.5 42.6466 4.21812 39.0129 10.9709 36.521C11.5247 36.338 12.1279 36.3773 12.6533 36.6304C13.1787 36.8835 13.5853 37.3308 13.7874 37.8779C13.9894 38.425 13.9712 39.0292 13.7364 39.563C13.5017 40.0969 13.0688 40.5188 12.5291 40.7397C7.88563 42.4582 5 44.7588 5 46.75C5 50.5075 15.2712 55.75 32 55.75C48.7288 55.75 59 50.5075 59 46.75C59 44.7588 56.1144 42.4582 51.4709 40.7425C50.9312 40.5216 50.4983 40.0997 50.2636 39.5659C50.0288 39.032 50.0106 38.4278 50.2126 37.8807C50.4147 37.3336 50.8213 36.8863 51.3467 36.6332C51.8721 36.3801 52.4753 36.3409 53.0291 36.5238C59.7819 39.0129 63.5 42.6466 63.5 46.75Z" fill="#666"/>
</svg>
