<svg width="14" height="14" viewBox="0 0 14 14" fill="none" xmlns="http://www.w3.org/2000/svg">
<path d="M6.125 1.75C3.70875 1.75 1.75 3.70875 1.75 6.125C1.75 8.54125 3.70875 10.5 6.125 10.5C7.14788 10.5 8.08625 10.1394 8.82062 9.53813L11.0163 11.7338C11.1144 11.8269 11.2447 11.8778 11.3797 11.876C11.5147 11.8742 11.6436 11.8198 11.7392 11.7242C11.8348 11.6286 11.8892 11.4997 11.891 11.3647C11.8928 11.2297 11.8419 11.0994 11.7488 11.0013L9.55313 8.80562C10.1544 8.07125 10.5 7.13288 10.5 6.125C10.5 3.70875 8.54125 1.75 6.125 1.75ZM6.125 2.775C7.98038 2.775 9.475 4.26962 9.475 6.125C9.475 7.98038 7.98038 9.475 6.125 9.475C4.26962 9.475 2.775 7.98038 2.775 6.125C2.775 4.26962 4.26962 2.775 6.125 2.775Z" fill="#666"/>
</svg>
