<svg width="120" height="75" viewBox="0 0 120 75" fill="none" xmlns="http://www.w3.org/2000/svg">
<path d="M61.3721 0C78.4705 0.000189859 92.7832 11.8958 96.498 27.8643C109.244 27.8909 119.569 38.2328 119.569 50.9854L119.562 51.582C119.245 64.0751 109.018 74.1043 96.4492 74.1045C96.2703 74.1045 96.0958 74.1015 95.9287 74.0977H86.8633C86.7676 74.1025 86.6711 74.1045 86.5742 74.1045H74.2236C71.1231 74.1045 68.6104 71.5928 68.6104 68.4922C68.6104 65.3917 71.1231 62.8799 74.2236 62.8799H76.3203C76.4264 62.8741 76.5335 62.8691 76.6416 62.8691H96.0215L96.1016 62.8711C96.2269 62.8747 96.3422 62.8769 96.4492 62.877C102.812 62.8767 108.007 57.8796 108.326 51.5967L108.342 50.9854C108.342 44.4176 103.017 39.093 96.4492 39.0928C95.3401 39.0928 94.2723 39.2442 93.2617 39.5244C89.8262 40.4773 86.3838 38.0268 86.1582 34.4688C85.3368 21.4978 74.5522 11.2287 61.3721 11.2285C55.0827 11.2286 49.3335 13.5662 44.9541 17.4248C43.0688 19.0859 40.3619 19.5999 38.0752 18.5586C34.9123 17.1181 33.304 13.1527 35.75 10.6836C42.2836 4.0883 51.3479 0.000133834 61.3721 0Z" fill="#2E323F"/>
<path d="M23.6475 26.9502C33.5252 26.9505 41.986 33.0081 45.5234 41.6104L57.2842 67.0234C58.8433 70.393 56.3827 74.2429 52.6699 74.2432H24.04V74.2383C23.9095 74.2404 23.7785 74.2432 23.6475 74.2432C10.588 74.2432 0.000462287 63.657 0 50.5977C0 37.5379 10.5878 26.9502 23.6475 26.9502ZM24.1475 41.0508C18.8766 41.0508 14.6037 45.3239 14.6035 50.5947C14.6035 55.8657 18.8765 60.1387 24.1475 60.1387C29.4184 60.1386 33.6914 55.8657 33.6914 50.5947C33.6912 45.3239 29.4183 41.0508 24.1475 41.0508Z" fill="#415FF4"/>
</svg>
