<svg width="14" height="15" viewBox="0 0 14 15" fill="none" xmlns="http://www.w3.org/2000/svg">
<path d="M11.7852 8.759C11.8138 8.759 11.8424 8.76195 11.8706 8.76754C11.9101 8.77536 11.9468 8.79004 11.9817 8.8077C12.022 8.82811 12.0608 8.85346 12.0945 8.88717C12.1241 8.91678 12.1469 8.95057 12.1663 8.98544C12.1877 9.02411 12.2052 9.06546 12.2141 9.11019C12.2198 9.13865 12.2227 9.16758 12.2227 9.1965V11.8215C12.2227 12.0631 12.0268 12.259 11.7852 12.259C11.5435 12.259 11.3477 12.0631 11.3477 11.8215V10.2527L10.5479 11.0525C9.57078 12.0295 8.24756 12.5816 6.86584 12.5897C5.48425 12.5976 4.15503 12.0607 3.16675 11.0952C2.99414 10.9263 2.99114 10.6493 3.15991 10.4765C3.32877 10.3039 3.60581 10.301 3.77856 10.4697C4.6022 11.2742 5.71021 11.7214 6.86157 11.7147C8.01284 11.7079 9.11507 11.2479 9.9292 10.4338L10.729 9.634H9.16016C8.91853 9.634 8.72266 9.43812 8.72266 9.1965C8.7227 8.95491 8.91856 8.759 9.16016 8.759H11.7852ZM7.07947 2.30331C8.46106 2.29538 9.79028 2.83231 10.7786 3.79782C10.9512 3.96668 10.9542 4.24369 10.7854 4.41647C10.6166 4.58905 10.3395 4.59273 10.1667 4.42416C9.3431 3.61949 8.23519 3.17161 7.08374 3.17831C5.93243 3.18512 4.83025 3.64594 4.01611 4.46005L3.21631 5.259H4.78516C5.02675 5.259 5.22261 5.45491 5.22266 5.6965C5.22266 5.93812 5.02678 6.134 4.78516 6.134H2.16016C1.91853 6.134 1.72266 5.93812 1.72266 5.6965V3.0715C1.7227 2.82991 1.91856 2.634 2.16016 2.634C2.40175 2.634 2.59761 2.82991 2.59766 3.0715V4.64035L3.39746 3.84054C4.37451 2.86365 5.69784 2.31135 7.07947 2.30331Z" fill="#666"/>
</svg>
