<svg width="16" height="17" viewBox="0 0 16 17" fill="none" xmlns="http://www.w3.org/2000/svg">
<path d="M13.5 2C14.6046 2 15.5 2.89543 15.5 4C15.5 5.10457 14.6046 6 13.5 6C13.3352 6 13.1757 5.97706 13.0225 5.93945L11.3564 9.0332C11.7513 9.39855 12 9.91961 12 10.5C12 11.6046 11.1046 12.5 10 12.5C8.89543 12.5 8 11.6046 8 10.5C8 10.1293 8.10251 9.78303 8.27832 9.48535L7.01367 8.2207C6.71606 8.3964 6.37063 8.5 6 8.5C5.83516 8.5 5.67571 8.47706 5.52246 8.43945L3.85645 11.5332C4.25132 11.8985 4.5 12.4196 4.5 13C4.5 14.1046 3.60457 15 2.5 15C1.39543 15 0.5 14.1046 0.5 13C0.5 11.8954 1.39543 11 2.5 11C2.66443 11 2.82366 11.0221 2.97656 11.0596L4.64258 7.96484C4.24858 7.59956 4 7.07965 4 6.5C4 5.39543 4.89543 4.5 6 4.5C7.10457 4.5 8 5.39543 8 6.5C8 6.87063 7.8964 7.21606 7.7207 7.51367L8.98535 8.77832C9.28303 8.60251 9.62925 8.5 10 8.5C10.1644 8.5 10.3237 8.52215 10.4766 8.55957L12.1426 5.46484C11.7486 5.09956 11.5 4.57965 11.5 4C11.5 2.89543 12.3954 2 13.5 2ZM2.5 12C1.94772 12 1.5 12.4477 1.5 13C1.5 13.5523 1.94772 14 2.5 14C3.05228 14 3.5 13.5523 3.5 13C3.5 12.4477 3.05228 12 2.5 12ZM10 9.5C9.44771 9.5 9 9.94772 9 10.5C9 11.0523 9.44771 11.5 10 11.5C10.5523 11.5 11 11.0523 11 10.5C11 9.94772 10.5523 9.5 10 9.5ZM6 5.5C5.44772 5.5 5 5.94772 5 6.5C5 7.05228 5.44772 7.5 6 7.5C6.55228 7.5 7 7.05228 7 6.5C7 5.94772 6.55228 5.5 6 5.5ZM13.5 3C12.9477 3 12.5 3.44772 12.5 4C12.5 4.55228 12.9477 5 13.5 5C14.0523 5 14.5 4.55228 14.5 4C14.5 3.44772 14.0523 3 13.5 3Z" fill="#666"/>
</svg>
