<svg width="388" height="87" viewBox="0 0 388 87" fill="none" xmlns="http://www.w3.org/2000/svg">
<path d="M55.5859 0C71.0724 0 84.0358 10.7743 87.4004 25.2373C98.9448 25.2614 108.297 34.6277 108.297 46.1777L108.29 46.7188C108.003 58.034 98.7394 67.1182 87.3555 67.1182C87.1935 67.1182 87.036 67.1148 86.8848 67.1113H78.6738C78.5873 67.1157 78.4998 67.1182 78.4121 67.1182H67.2256C64.4174 67.1181 62.1426 64.8424 62.1426 62.0342C62.1428 59.2262 64.4175 56.9513 67.2256 56.9512H69.1035C69.2066 56.9451 69.3108 56.9414 69.416 56.9414H86.9688L87.041 56.9434C87.1545 56.9466 87.2585 56.9482 87.3555 56.9482C93.1183 56.9482 97.8245 52.423 98.1133 46.7324L98.127 46.1777C98.1268 40.2293 93.304 35.4062 87.3555 35.4062C86.3509 35.4063 85.3841 35.544 84.4688 35.7979C81.3571 36.6608 78.2394 34.4414 78.0352 31.2188C77.2912 19.4707 67.5236 10.1699 55.5859 10.1699C49.8896 10.17 44.6833 12.2875 40.7168 15.7822C39.0093 17.2867 36.5575 17.7517 34.4863 16.8086C31.6216 15.504 30.1647 11.9131 32.3799 9.67676C38.2975 3.7032 46.5068 0.000123745 55.5859 0Z" fill="#E9E9E9"/>
<path d="M21.418 24.4092C30.3644 24.4095 38.0276 29.8963 41.2314 37.6875L51.5684 60.0234C53.1274 63.3931 50.6661 67.2432 46.9531 67.2432H21.7734V67.2383C21.6553 67.2402 21.5366 67.2432 21.418 67.2432C9.58988 67.2432 0.000460767 57.6551 0 45.8271C0 33.9988 9.58959 24.4092 21.418 24.4092ZM21.8711 37.1807C17.0971 37.1807 13.2266 41.0512 13.2266 45.8252C13.2268 50.599 17.0972 54.4688 21.8711 54.4688C26.6448 54.4685 30.5144 50.5989 30.5146 45.8252C30.5146 41.0513 26.6449 37.1809 21.8711 37.1807Z" fill="#AAB1FF"/>
<path d="M355.094 24.6484L369.16 64.1178L363.789 73.4097L345.035 24.6484H355.094ZM346.143 85.7705V77.9278H352.025C353.389 77.9278 354.583 77.7857 355.606 77.5016C356.686 77.2174 357.652 76.6491 358.504 75.7966C359.357 74.9441 360.095 73.6939 360.721 72.0458L378.196 24.6484H388L367.711 75.9671C366.233 79.718 364.358 82.4459 362.085 84.1508C359.811 85.8558 356.998 86.7082 353.645 86.7082C352.224 86.7082 350.889 86.623 349.638 86.4525C348.445 86.3388 347.28 86.1115 346.143 85.7705Z" fill="#E9E9E9"/>
<path d="M296.941 45.534C296.941 41.2149 297.879 37.4072 299.755 34.111C301.687 30.7579 304.329 28.1437 307.683 26.2682C311.036 24.3928 314.843 23.4551 319.106 23.4551C323.425 23.4551 327.233 24.3928 330.529 26.2682C333.882 28.1437 336.524 30.7579 338.457 34.111C340.389 37.4072 341.355 41.2149 341.355 45.534C341.355 49.9101 340.389 53.7462 338.457 57.0424C336.524 60.3386 333.882 62.9244 330.529 64.7999C327.233 66.6753 323.425 67.613 319.106 67.613C314.843 67.613 311.036 66.6753 307.683 64.7999C304.329 62.9244 301.687 60.3386 299.755 57.0424C297.879 53.7462 296.941 49.9101 296.941 45.534ZM306.489 45.534C306.489 48.2051 307.029 50.5636 308.109 52.6095C309.189 54.6555 310.666 56.2467 312.542 57.3834C314.474 58.52 316.662 59.0883 319.106 59.0883C321.606 59.0883 323.794 58.52 325.67 57.3834C327.602 56.2467 329.108 54.6555 330.188 52.6095C331.268 50.5636 331.807 48.2051 331.807 45.534C331.807 42.8061 331.268 40.4476 330.188 38.4585C329.108 36.4126 327.602 34.8213 325.67 33.6847C323.794 32.5481 321.606 31.9798 319.106 31.9798C316.662 31.9798 314.474 32.5481 312.542 33.6847C310.666 34.8213 309.189 36.4126 308.109 38.4585C307.029 40.4476 306.489 42.8061 306.489 45.534Z" fill="#E9E9E9"/>
<path d="M233.345 66.59H223.883V24.6485H232.578L233.686 32.2355L232.578 31.2978C233.43 29.1382 234.993 27.2912 237.267 25.7567C239.597 24.2223 242.438 23.4551 245.791 23.4551C249.485 23.4551 252.526 24.4212 254.913 26.3535C257.3 28.2857 258.919 30.8716 259.772 34.111H258.152C258.777 30.8716 260.369 28.2857 262.926 26.3535C265.483 24.4212 268.637 23.4551 272.388 23.4551C277.333 23.4551 281.169 24.8759 283.897 27.7174C286.625 30.5022 287.989 34.3099 287.989 39.1405V66.59H278.611V41.5274C278.611 38.4585 277.816 36.1 276.224 34.4519C274.69 32.8038 272.616 31.9798 270.001 31.9798C268.24 31.9798 266.648 32.3776 265.228 33.1732C263.864 33.9689 262.755 35.1339 261.903 36.6684C261.107 38.2028 260.71 40.1067 260.71 42.3799V66.59H251.247V41.5274C251.247 38.4585 250.48 36.1285 248.945 34.5372C247.411 32.8891 245.337 32.065 242.722 32.065C240.961 32.065 239.369 32.4628 237.949 33.2585C236.528 33.9973 235.391 35.1339 234.539 36.6684C233.743 38.2028 233.345 40.1067 233.345 42.3799V66.59Z" fill="#E9E9E9"/>
<path d="M202.471 24.6484H211.933V66.5899H203.238L202.471 60.7079C201.221 62.7538 199.317 64.4304 196.759 65.7375C194.259 67.0446 191.559 67.6982 188.661 67.6982C183.83 67.6982 180.051 66.1637 177.323 63.0948C174.652 60.0259 173.316 55.9341 173.316 50.8193V24.6484H182.864V47.4946C182.864 51.7001 183.66 54.7122 185.251 56.5308C186.899 58.2926 189.201 59.1735 192.156 59.1735C195.623 59.1735 198.209 58.1505 199.913 56.1046C201.618 54.0018 202.471 50.8477 202.471 46.6422V24.6484Z" fill="#E9E9E9"/>
<path d="M137.666 66.5899H128.203V3.42188H137.666V42.9765L154.8 24.6484H166.735L150.794 41.3568L166.479 66.5899H155.567L144.144 48.2618L137.666 55.0815V66.5899Z" fill="#E9E9E9"/>
</svg>
